<?xml version="1.0" encoding="UTF-8"?>
<svg id="a" data-name="&amp;lt;Layer&amp;gt;" xmlns="http://www.w3.org/2000/svg" viewBox="0 0 564.89 682.03">
  <defs>
    <style>
      .b {
        fill: #a66a3f;
      }

      .b, .c, .d, .e, .f, .g, .h, .i, .j, .k, .l {
        stroke-width: 0px;
      }

      .c {
        fill: #c98d55;
      }

      .d {
        fill: #8a532e;
      }

      .e {
        fill: #ad7a4a;
      }

      .f {
        fill: #965d37;
      }

      .g {
        fill: #7a4a2a;
      }

      .h {
        fill: #ba8756;
      }

      .i {
        fill: #784726;
      }

      .j {
        fill: #8c5531;
      }

      .k {
        fill: #ffe6bd;
      }

      .l {
        fill: #804e2c;
      }
    </style>
  </defs>
  <g>
    <g>
      <g>
        <path class="f" d="M555.4,351.89l9.48,89.73-9.48,83.58-53.51,73.12-117.66,54.29s-138.19,25.1-148.43,29.16-135.96-40.96-135.96-40.96l-57.17-66.97s-24.52-89.6-33.6-101.58C0,460.29,0,350.55,0,350.55l9.07-61.52,546.33,62.86Z"/>
        <path class="d" d="M501.9,598.31l53.51-73.12,9.48-83.58-3.58-33.92c-3.77,18.63-9.33,46.39-10.64,54.41-2.03,12.41-4.06,52.74-6.1,58.48-2.03,5.74-36.13,59.62-47.02,64.69-10.89,5.06-109.46,46.33-117.58,45.51-8.12-.82-17.86,1.84-24.17,0-6.3-1.84-32.34,13.4-45.74,16.45s-52.59,8.13-62.46,7.11c-9.87-1.02-141.94-56.04-141.94-56.04,0,0-45.11-54.69-46.43-56.73-1.32-2.04-45.01-84.1-46.02-103.01-.72-13.37-7.02-72.07-10.65-105.36l-2.56,17.35s0,109.74,9.07,121.72c9.07,11.98,33.6,101.58,33.6,101.58l57.17,66.97s125.71,45.02,135.96,40.96,148.43-29.16,148.43-29.16l117.66-54.29Z"/>
      </g>
      <path class="e" d="M44.93,168.13c7.2-17.91,84.6-68.8,84.6-68.8l85.44-34.91L306.55,2.12s127.8-6.4,130.92,3.05c3.12,9.45,69.21,219.15,75.12,222.28,5.92,3.13,42.81,124.45,42.81,124.45l-22.12,162.78-50.35,49.63s-201.81,74.57-222.62,66.48c-6.7-2.61-102.58-48.09-137.63-67.02-35.05-18.93-97.15-135.41-98.27-142.1l-15.34-132.63s29.25-104.47,35.86-120.9Z"/>
    </g>
    <g>
      <path class="b" d="M113.29,162.89c-20.04,19.27-29.71,18.34-39.87,51.23-10.15,32.89-21.62,37.03-7.86,61.34,13.76,24.31,12.34,37.09,34.27,37.01,21.93-.08,36.8-19.98,38.61-48.74,1.8-28.76-1.22-123.86-25.15-100.84Z"/>
      <path class="b" d="M99.84,476.26c-14.68,20.73-14.53,20.15,13.45,39.97,27.98,19.82,45.39,35.88,59.05,37.02,13.66,1.15,34.37-4.66,20-16.09-14.37-11.43-34.12-7.73-47.76-33.1-13.64-25.36-35.71-40.57-44.75-27.8Z"/>
      <path class="b" d="M482.94,564.3l37.22-36.69c-9.48.32-19.14,2.46-24.47,4.33-28.39,9.96-54.25,4.05-66.63,30.02-5.25,11.01-15.5,21.43-22.69,29.52,41.99-14.4,76.56-27.17,76.56-27.17Z"/>
      <path class="b" d="M449.46,184.91c-2.99,29.46-1.31,41.15,13.12,66.32,14.43,25.16,11.38,50.22,31.19,28.55,19.81-21.67,10.67-17.02,0-46.02-10.67-28.99-41.84-73.12-44.31-48.85Z"/>
      <path class="h" d="M273.1,78.19c-39.98,5.87-65.05,7.71-50.2,15.33,14.84,7.62,16.71,11.93,37.88,6.73,21.16-5.2,40.76-26.23,12.33-22.05Z"/>
      <path class="h" d="M513.62,284.22c-18.33,21.13-20.88,48.76-8.17,37.23,12.71-11.53,8.17-37.23,8.17-37.23Z"/>
      <path class="h" d="M62.5,242.45c-23.09,14.87-19.83,34.09-9.16,32.1,10.67-1.99,17.82-4.02,20.08-11.25,2.27-7.23-3.32-25.76-10.93-20.86Z"/>
      <path class="h" d="M89.41,170.91c-6.1,7.95-15.45,16.85-5.18,19.01,10.26,2.16,20.42-.68,23.47-9.17s13.21-28.58,3.56-26.41c-9.65,2.17-21.84,16.57-21.84,16.57Z"/>
    </g>
    <g>
      <path class="c" d="M122.68,563.76c35.05,18.93,130.92,64.41,137.63,67.02,11.26,4.38,75.55-15.45,132.16-34.57l-57,9.37-61.05,6.1s-45.83-7.11-50.42-9.14c-4.59-2.03-79.42-40.57-79.42-40.57,0,0-26.73-14.29-31.29-16.32-4.56-2.03-88.87-123.97-88.87-123.97,0,0,.13.42.38,1.2,5.24,13.88,64.11,122.66,97.88,140.9Z"/>
      <path class="c" d="M437.47,5.17c-3.12-9.45-130.92-3.05-130.92-3.05l-91.58,62.3,90.98-46.08,32.93-7.32s60.06-1.22,63.28,0c3.22,1.22,24.18-.81,26.91,8.33,2.73,9.14,15.28,60.86,20.69,68.02,4.16,5.51,39.09,85.39,55,121.99-19.07-51.64-64.7-196.38-67.28-204.19Z"/>
    </g>
    <g>
      <polygon class="i" points="379.97 653.38 369.61 630.97 383.67 607.61 392.47 596.2 361.55 617.77 349.4 624.79 342.22 634.32 330.18 662.59 379.97 653.38"/>
      <polygon class="i" points="555.4 525.2 545.43 516.23 533.29 514.67 541.29 526.76 555.4 525.2"/>
      <polygon class="i" points="115.32 646.27 119.65 604.1 113.29 557 149.81 553.4 99.84 540.29 100.03 591.47 99.84 640.81 115.32 646.27"/>
      <polygon class="i" points="214.97 64.41 186.96 91.56 177.89 114.98 175.77 91.56 214.97 64.41"/>
    </g>
  </g>
  <g>
    <g>
      <path class="j" d="M301.92,110.49l27.2-56.1,37.29-21.86s35.74,70.62,32.5,74.38c-3.24,3.75,10.69,109.71,17.38,120.93,6.68,11.21,65.34,108.55,76.33,124.93,10.99,16.38,20.99,52.79,20.99,52.79,0,0-8.05,14.24-26.2,32.92-18.16,18.67-34.48,35.47-34.48,35.47l-7.45,39.89-65.48,5.31-65.33,23.16-71.38,19.67-59.88-51.51-36.99-41.1s-71.94-90.08-72.96-98.39c-1.02-8.3,18.88-109.56,18.88-109.56l46.62-97.07,61.13-32.05,61.52-1.06c20.17-3.44,40.32-20.73,40.32-20.73Z"/>
      <g>
        <path class="l" d="M172.34,380.01c-18.08,11.91-8.48,17.02-4.3,33.81,4.18,16.79,1.5,41.65,7.73,48.29,6.23,6.63,8.88-5.51,13.93-12.81,5.06-7.29,17.5-10.58,23.63-16.56,6.12-5.98-10.6-42.07-13.41-56.03-2.81-13.96-27.58,3.3-27.58,3.3Z"/>
        <path class="l" d="M440.94,386.07c-10.16,5.13,5.35,33.68,4.2,45.31s.16,14.17,18.81,3.25c18.65-10.92,26.78-8.93,22.71-24.66-4.06-15.73-10.97-37.78-24.08-36.48-13.12,1.3-21.64,12.58-21.64,12.58Z"/>
        <path class="l" d="M316.85,251.23s-18.73-24.79-51.46-21.15c-32.73,3.64-50.61,11.22-55.39,21.15-4.77,9.92,16.63,17.09,28.93,29.84,12.3,12.75,31.1,29.16,46.96,19.86,15.86-9.3,47.92-35.63,30.96-49.7Z"/>
        <path class="l" d="M289.7,163.81c-3.96-1.86-27.15-7.35-42.09,9.95-14.94,17.3-13.76,37.5-1.65,25.87,12.11-11.63,24.22-6.69,39.5-16.78,15.28-10.09,17.6-12.76,4.25-19.04Z"/>
        <path class="l" d="M100.55,353.9c2.03,11.44-4.54,13.08,3.08,25.32,7.62,12.23,16.64,16.44,22.54-.31,3-8.52-6.31-33.82-13.56-45.96-6.75-11.3-14.96,4.52-12.05,20.94Z"/>
      </g>
      <path class="g" d="M416.3,227.82c-6.68-11.21-20.62-117.17-17.38-120.93,3.24-3.75-32.5-74.38-32.5-74.38l-37.29,21.86-27.2,56.1s-20.15,17.3-40.32,20.73l-61.52,1.06-61.13,32.05-46.62,97.07s-19.9,101.26-18.88,109.56l22.72-72.25,8.01-31.26,42.36-92.85,55.99-28.85s57.96,4.06,65.83,4.01c7.87-.05,38.83-17.22,40.85-20.3,2.03-3.08,31.18-67.55,31.18-67.55l19.02-15.27s27.5,44.88,28.34,53.97c.84,9.1,4.18,54.64,4.78,61.52.6,6.89-4.57,55.26,6.56,66.2,11.14,10.94,50.21,71.09,50.21,71.09l42.86,60.61,21.43,45.5s-10-36.4-20.99-52.79c-10.99-16.38-69.65-113.72-76.33-124.93Z"/>
    </g>
    <path class="k" d="M184.34,275.66c-1.6-9.6-4.48-14.08-13.44-15.36l-8.64-1.28v-12.8h16c26.56,0,32.64,10.24,35.84,38.08l1.6,13.44c5.44,46.72,14.08,66.56,65.92,66.56s60.48-19.84,65.92-66.56l1.6-13.44c3.2-27.84,9.28-38.08,35.84-38.08h16v12.8l-8.64,1.28c-8.96,1.28-11.84,5.76-13.44,15.36l-3.52,22.72c-9.28,60.48-28.16,80.64-93.76,80.64s-84.48-20.16-93.76-80.64l-3.52-22.72ZM236.82,447.82l41.6-4.8h6.4l41.6,4.8v12.8h-89.6v-12.8ZM240.02,246.22h83.2v12.8l-38.4,4.8h-6.4l-38.4-4.8v-12.8ZM267.22,361.42v-16c0-32.96,0-66.24-.96-99.2h30.72c-.96,32.32-.96,65.6-.96,99.2v16c0,32.96,0,66.24.96,99.2h-30.72c.96-32.32.96-65.6.96-99.2Z"/>
  </g>
</svg>